<svg id="Layer_1" data-name="Layer 1" xmlns="http://www.w3.org/2000/svg" viewBox="0 0 344.59 119.58"><defs><style>.cls-1{fill:#010101;}.cls-2{fill:#fff;}.cls-3{fill:#231f20;}</style></defs><circle class="cls-1" cx="172.29" cy="34.74" r="34.74"/><path class="cls-2" d="M275.45,656.92l-1.66-2.39-1-1.56h0v3.94h-1.44v-6.51h1.28l1.37,2,1.25,2h0v-3.94h1.44v6.51Z" transform="translate(-125.66 -628.28)"/><path class="cls-2" d="M280.86,656.92H279.7l-2.26-6.51H279l.83,2.64.48,1.65h.05l.46-1.62.82-2.67h1.51Z" transform="translate(-125.66 -628.28)"/><path class="cls-2" d="M283.83,656.92v-6.51h4.6v1.29h-3.16V653H288v1.24h-2.69v1.37h3.16v1.29Z" transform="translate(-125.66 -628.28)"/><path class="cls-2" d="M271.37,666.27v-6.51H276v1.29h-3.16v1.32h2.7v1.25h-2.7V665H276v1.29Z" transform="translate(-125.66 -628.28)"/><path class="cls-2" d="M280.73,666.27l-1.3-2.11-1.29,2.11h-1.62l2.2-3.33-2.08-3.18h1.63l1.16,2,1.17-2h1.64l-2.09,3.18,2.22,3.33Z" transform="translate(-125.66 -628.28)"/><path class="cls-2" d="M288.11,661.86a1.85,1.85,0,0,1-.18.81,1.93,1.93,0,0,1-.48.65,2.19,2.19,0,0,1-.71.42,2.37,2.37,0,0,1-.88.16h-1.27v2.37h-1.44v-6.51h2.68a2.75,2.75,0,0,1,.93.15,1.81,1.81,0,0,1,.72.41,2,2,0,0,1,.47.66A2.23,2.23,0,0,1,288.11,661.86Zm-1.46,0a.71.71,0,0,0-.23-.58,1,1,0,0,0-.66-.2h-1.17v1.56h1.2a.92.92,0,0,0,.61-.21A.7.7,0,0,0,286.65,661.83Z" transform="translate(-125.66 -628.28)"/><path class="cls-2" d="M288.89,666.27v-6.51h4.6v1.29h-3.16v1.32H293v1.25h-2.69V665h3.16v1.29Z" transform="translate(-125.66 -628.28)"/><path class="cls-2" d="M297.76,666.27l-1-2.51h-.93v2.51h-1.44v-6.51h2.88a2.64,2.64,0,0,1,.81.13,2.33,2.33,0,0,1,.67.38,1.77,1.77,0,0,1,.45.62,1.84,1.84,0,0,1,.17.83,2,2,0,0,1-.3,1.06,1.89,1.89,0,0,1-.89.72l1.24,2.77Zm.09-4.54a.61.61,0,0,0-.23-.53A1,1,0,0,0,297,661H295.8v1.43H297a1,1,0,0,0,.62-.19A.66.66,0,0,0,297.85,661.73Z" transform="translate(-125.66 -628.28)"/><path class="cls-2" d="M300.34,666.27v-6.51h1.44v6.51Z" transform="translate(-125.66 -628.28)"/><path class="cls-2" d="M303,666.27v-6.51h4.6v1.29h-3.16v1.32h2.69v1.25h-2.69V665h3.16v1.29Z" transform="translate(-125.66 -628.28)"/><path class="cls-2" d="M312.57,666.27l-1.66-2.39-1-1.55h0v3.93h-1.44v-6.51h1.28l1.37,2,1.25,2h0v-3.94h1.44v6.51Z" transform="translate(-125.66 -628.28)"/><path class="cls-2" d="M319.78,664.69a2.29,2.29,0,0,1-.88,1.2,2.67,2.67,0,0,1-1.55.44,2.85,2.85,0,0,1-1.1-.19,2,2,0,0,1-.78-.52,2.11,2.11,0,0,1-.47-.81,3.33,3.33,0,0,1-.15-1v-1.53a3,3,0,0,1,.15-1,2.26,2.26,0,0,1,1.25-1.37,2.84,2.84,0,0,1,1.1-.2,2.57,2.57,0,0,1,1.56.45,2.35,2.35,0,0,1,.87,1.2l-1.37.49a1,1,0,0,0-.35-.57,1.09,1.09,0,0,0-.72-.23,1.08,1.08,0,0,0-.46.09,1,1,0,0,0-.33.24,1.05,1.05,0,0,0-.2.34,1.32,1.32,0,0,0-.06.39v1.77a1.4,1.4,0,0,0,.06.41,1,1,0,0,0,.2.34,1,1,0,0,0,.33.25,1.08,1.08,0,0,0,.46.09,1,1,0,0,0,1.07-.81Z" transform="translate(-125.66 -628.28)"/><path class="cls-2" d="M320.6,666.27v-6.51h4.6v1.29H322v1.32h2.69v1.25H322V665h3.16v1.29Z" transform="translate(-125.66 -628.28)"/><path class="cls-2" d="M275.37,675.62l-.49-1.32H272.7l-.49,1.32H270.7l2.52-6.5h1.14l2.52,6.5Zm-1.18-3.29L273.8,671h0l-.38,1.27-.24.77h1.28Z" transform="translate(-125.66 -628.28)"/><path class="cls-2" d="M279.72,669.07a2.57,2.57,0,0,1,1.56.45,2.41,2.41,0,0,1,.87,1.2l-1.37.49a1.08,1.08,0,0,0-.35-.57,1.09,1.09,0,0,0-.72-.23,1.13,1.13,0,0,0-.47.09,1,1,0,0,0-.33.24,1.05,1.05,0,0,0-.2.34,1.32,1.32,0,0,0-.06.39v1.76a1.35,1.35,0,0,0,.06.41,1.1,1.1,0,0,0,.2.35.9.9,0,0,0,.33.25,1.21,1.21,0,0,0,.48.09,1.32,1.32,0,0,0,.44-.08,1.21,1.21,0,0,0,.35-.24,1,1,0,0,0,.25-.34,1,1,0,0,0,.09-.42v0h-1.33V672h2.75v1.3a2.28,2.28,0,0,1-.2,1,2.6,2.6,0,0,1-.55.76,2.54,2.54,0,0,1-.81.49,2.72,2.72,0,0,1-1,.18,2.93,2.93,0,0,1-1.11-.19,2.08,2.08,0,0,1-1.25-1.32,3.42,3.42,0,0,1-.15-1V671.6a3.06,3.06,0,0,1,.15-1,2.19,2.19,0,0,1,.47-.81,2.36,2.36,0,0,1,.78-.56A2.93,2.93,0,0,1,279.72,669.07Z" transform="translate(-125.66 -628.28)"/><path class="cls-2" d="M283.22,675.62v-6.5h4.6v1.29h-3.16v1.31h2.69V673h-2.69v1.36h3.16v1.29Z" transform="translate(-125.66 -628.28)"/><path class="cls-2" d="M292.82,675.62l-1.66-2.39-1-1.55h0v3.93h-1.44v-6.5H290l1.36,2,1.26,1.95h0v-3.93h1.44v6.5Z" transform="translate(-125.66 -628.28)"/><path class="cls-2" d="M300,674a2.31,2.31,0,0,1-.88,1.21,2.74,2.74,0,0,1-1.55.43,2.85,2.85,0,0,1-1.1-.19,2,2,0,0,1-.78-.52,2.15,2.15,0,0,1-.47-.8,3.42,3.42,0,0,1-.15-1V671.6a3.06,3.06,0,0,1,.15-1,2.26,2.26,0,0,1,1.25-1.37,2.84,2.84,0,0,1,1.1-.2,2.57,2.57,0,0,1,1.56.45,2.41,2.41,0,0,1,.87,1.2l-1.37.49a1.08,1.08,0,0,0-.35-.57,1.09,1.09,0,0,0-.72-.23,1.08,1.08,0,0,0-.46.09,1,1,0,0,0-.33.24,1.17,1.17,0,0,0-.2.34,1.32,1.32,0,0,0-.06.39v1.77a1.4,1.4,0,0,0,.06.41,1.1,1.1,0,0,0,.2.35,1,1,0,0,0,.33.24,1.08,1.08,0,0,0,.46.09,1,1,0,0,0,.72-.23,1,1,0,0,0,.35-.58Z" transform="translate(-125.66 -628.28)"/><path class="cls-2" d="M303.68,673v2.66h-1.37V673l-2.1-3.84h1.55l.66,1.4.56,1.26h0l.55-1.25.67-1.41h1.55Z" transform="translate(-125.66 -628.28)"/><path class="cls-3" d="M129.2,736.39a2.17,2.17,0,0,0-2.37,2.25,2.29,2.29,0,0,0,2.48,2.35,2.06,2.06,0,0,0,2.16-1.67l.91.39c-.19,1.78-1.78,2.4-3.22,2.4a3.37,3.37,0,0,1-3.5-3.47,3.24,3.24,0,0,1,3.56-3.33c1.53,0,2.88.68,3.19,2.16l-1,.38A2.25,2.25,0,0,0,129.2,736.39Z" transform="translate(-125.66 -628.28)"/><path class="cls-3" d="M146.35,738.67a2.26,2.26,0,0,0,2.46,2.33,2,2,0,0,0,2.12-1.68H148.7v-1h3.38c.07,2.53-1.42,3.76-3.41,3.76a3.33,3.33,0,0,1-3.49-3.44,3.23,3.23,0,0,1,3.52-3.37,3,3,0,0,1,3.18,2.13l-1,.35a2.17,2.17,0,0,0-2.23-1.4A2.14,2.14,0,0,0,146.35,738.67Z" transform="translate(-125.66 -628.28)"/><path class="cls-3" d="M161.85,741.9h-1.11l-4.18-4.71v4.71h-1.09v-6.4h1.1l4.19,4.76V735.5h1.09Z" transform="translate(-125.66 -628.28)"/><path class="cls-3" d="M165.71,741.9v-6.4h1.09v6.4Z" transform="translate(-125.66 -628.28)"/><path class="cls-3" d="M176.68,736.58h-2.84v5.32h-1.09v-5.32h-2.84V735.5h6.77Z" transform="translate(-125.66 -628.28)"/><path class="cls-3" d="M179.79,741.9v-6.4h1.09v6.4Z" transform="translate(-125.66 -628.28)"/><path class="cls-3" d="M201,741.9h-1.11l-4.18-4.71v4.71h-1.08v-6.4h1.09l4.19,4.76V735.5H201Z" transform="translate(-125.66 -628.28)"/><path class="cls-3" d="M187.29,741a2.22,2.22,0,0,1-1.81-2.41,2.12,2.12,0,0,1,1.81-2.29v-1.05a3.44,3.44,0,0,0,0,6.8Z" transform="translate(-125.66 -628.28)"/><path class="cls-3" d="M188.21,735.29v1.06a2.23,2.23,0,0,1,1.81,2.41,2.1,2.1,0,0,1-1.81,2.28v1.05a3.43,3.43,0,0,0,0-6.8Z" transform="translate(-125.66 -628.28)"/><path class="cls-3" d="M138.3,741a2.22,2.22,0,0,1-1.81-2.41,2.11,2.11,0,0,1,1.81-2.29v-1.05a3.44,3.44,0,0,0,0,6.8Z" transform="translate(-125.66 -628.28)"/><path class="cls-3" d="M139.22,735.29v1.06a2.23,2.23,0,0,1,1.81,2.41,2.1,2.1,0,0,1-1.81,2.28v1.05a3.43,3.43,0,0,0,0-6.8Z" transform="translate(-125.66 -628.28)"/><path class="cls-3" d="M183.4,747c0,.5-.29.85-1,.85h-2.66V745h2.56c.66,0,.87.34.87.77a.87.87,0,0,1-.23.56A.83.83,0,0,1,183.4,747Zm-2.86-.91h1.55c.19,0,.38,0,.38-.31s-.19-.3-.39-.3h-1.54Zm2.11.88c0-.31-.18-.31-.38-.31h-1.73v.61h1.73C182.47,747.28,182.65,747.28,182.65,747Z" transform="translate(-125.66 -628.28)"/><path class="cls-3" d="M183.38,745h.9l1.12,1.33,1.12-1.33h.9l-1.64,2v1H185v-1Z" transform="translate(-125.66 -628.28)"/><path class="cls-3" d="M193.39,745v2.91h-1l-2-2.18v2.18h-.75V745h1l2,2.19V745Z" transform="translate(-125.66 -628.28)"/><path class="cls-3" d="M197.66,745l-1.49,2.91h-1L193.65,745h.84l1.16,2.36,1.17-2.36Z" transform="translate(-125.66 -628.28)"/><path class="cls-3" d="M198.67,745.55v.59H201v.54h-2.33v.59H201v.59h-3.08V745H201v.6Z" transform="translate(-125.66 -628.28)"/><path class="cls-3" d="M162.29,726.27c-2.51-.43-4-2.47-4-5.41s1.55-4.74,4-5.12v-2.37c-4,.4-6.59,3.31-6.59,7.7a7.15,7.15,0,0,0,6.59,7.56Z" transform="translate(-125.66 -628.28)"/><path class="cls-3" d="M164.35,713.37v2.39c2.51.44,4.07,2.48,4.07,5.4s-1.57,4.72-4.07,5.12v2.35c4-.41,6.61-3.32,6.61-7.71A7.16,7.16,0,0,0,164.35,713.37Z" transform="translate(-125.66 -628.28)"/><path class="cls-3" d="M236.35,731.17v8.45h-2.12v-8.45H231v-1.82h8.58v1.82Z" transform="translate(-125.66 -628.28)"/><path class="cls-3" d="M242.75,733.1a2.51,2.51,0,0,1,2-1c1.64,0,2.69,1,2.69,3v4.5h-2v-4.3c0-1.11-.49-1.61-1.28-1.61s-1.44.65-1.44,2v3.92h-2V729.35h2v3.75Z" transform="translate(-125.66 -628.28)"/><path class="cls-3" d="M253.89,737.4H256a3.34,3.34,0,0,1-3.5,2.45c-2.31,0-3.65-1.61-3.65-4a3.55,3.55,0,0,1,3.63-3.84,3.39,3.39,0,0,1,3.39,2.44,6.09,6.09,0,0,1,.23,1.88h-5.26c.06,1.51.79,2,1.66,2A1.33,1.33,0,0,0,253.89,737.4Zm-3.06-2.29H254a1.59,1.59,0,0,0-1.6-1.62C251.61,733.49,251,734,250.83,735.11Z" transform="translate(-125.66 -628.28)"/><path class="cls-3" d="M259.71,731.17V734h4.37v1.81h-4.37v3.84h-2.12V729.35h6.85v1.82Z" transform="translate(-125.66 -628.28)"/><path class="cls-3" d="M265.73,736.79V732.3h2v4.29c0,1.11.49,1.62,1.29,1.62s1.44-.67,1.44-2V732.3h2v7.32h-1.89v-.92h0a2.6,2.6,0,0,1-2.15,1.09C266.79,739.79,265.73,738.78,265.73,736.79Z" transform="translate(-125.66 -628.28)"/><path class="cls-3" d="M278.26,738v1.55a4.33,4.33,0,0,1-1.07.14c-1.69,0-2.42-.68-2.42-2.38V733.8h-1.18v-1.5h1.18v-1.91h2v1.91h1.4v1.5h-1.4V737c0,.81.26,1.13.95,1.13A1.58,1.58,0,0,0,278.26,738Z" transform="translate(-125.66 -628.28)"/><path class="cls-3" d="M279.53,736.79V732.3h2v4.29c0,1.11.49,1.62,1.29,1.62s1.44-.67,1.44-2V732.3h2v7.32H284.4v-.92h0a2.6,2.6,0,0,1-2.15,1.09C280.58,739.79,279.53,738.78,279.53,736.79Z" transform="translate(-125.66 -628.28)"/><path class="cls-3" d="M292.44,732.27V734a3.68,3.68,0,0,0-.63-.07c-1.24,0-1.91.78-1.91,2.22v3.46h-2V732.3h1.87v1h0a2.21,2.21,0,0,1,2-1.15A2.5,2.5,0,0,1,292.44,732.27Z" transform="translate(-125.66 -628.28)"/><path class="cls-3" d="M298,737.4H300a3.34,3.34,0,0,1-3.51,2.45c-2.3,0-3.64-1.61-3.64-4a3.55,3.55,0,0,1,3.63-3.84,3.39,3.39,0,0,1,3.39,2.44,6.09,6.09,0,0,1,.23,1.88h-5.26c.05,1.51.79,2,1.65,2A1.33,1.33,0,0,0,298,737.4Zm-3.06-2.29h3.2a1.59,1.59,0,0,0-1.6-1.62C295.7,733.49,295.08,734,294.92,735.11Z" transform="translate(-125.66 -628.28)"/><path class="cls-3" d="M305.7,729.35c2.49,0,3.76,1.33,3.76,3.32S308.19,736,305.7,736h-1.76v3.63h-2.12V729.35Zm-1.76,4.88h1.47c1.34,0,1.89-.59,1.89-1.56s-.55-1.56-1.89-1.56h-1.47Z" transform="translate(-125.66 -628.28)"/><path class="cls-3" d="M316.71,735v2.66a7.67,7.67,0,0,0,.2,2H315.1a4.28,4.28,0,0,1-.1-1h0a2.75,2.75,0,0,1-2.38,1.15,2.24,2.24,0,0,1-2.5-2.22c0-1.19.72-2,2.84-2.33.55-.09,1.37-.18,1.84-.2v-.26c0-.93-.49-1.3-1.2-1.3a1.09,1.09,0,0,0-1.21,1.11h-2c.07-1.4,1.08-2.53,3.17-2.53S316.71,733.05,316.71,735Zm-1.94,1.3c-.44,0-1,.09-1.48.16-.83.14-1.18.42-1.18,1s.38.92,1.08.92a1.66,1.66,0,0,0,1.16-.42,1.75,1.75,0,0,0,.42-1.4Z" transform="translate(-125.66 -628.28)"/><path class="cls-3" d="M322.78,732.27V734a3.68,3.68,0,0,0-.64-.07c-1.24,0-1.9.78-1.9,2.22v3.46h-2V732.3h1.86v1h0a2.21,2.21,0,0,1,2-1.15A2.5,2.5,0,0,1,322.78,732.27Z" transform="translate(-125.66 -628.28)"/><path class="cls-3" d="M328.21,738v1.55a4.33,4.33,0,0,1-1.07.14c-1.68,0-2.42-.68-2.42-2.38V733.8h-1.18v-1.5h1.18v-1.91h2v1.91h1.4v1.5h-1.4V737c0,.81.26,1.13.95,1.13A1.58,1.58,0,0,0,328.21,738Z" transform="translate(-125.66 -628.28)"/><path class="cls-3" d="M333.89,739.66c-.74,2.07-1.66,2.71-3.49,2.71a4.9,4.9,0,0,1-1-.11v-1.62a2.17,2.17,0,0,0,.78.12,1.19,1.19,0,0,0,1.34-1.18,4,4,0,0,0-.35-1.33l-2.08-6h2.17l.75,2.45c.3,1,.57,2,.8,3.07h0c.25-1,.52-2.06.85-3.07l.8-2.45h2.07Z" transform="translate(-125.66 -628.28)"/><path class="cls-3" d="M340.33,738a1.8,1.8,0,1,1-1.8-1.85A1.72,1.72,0,0,1,340.33,738ZM337,738a1.55,1.55,0,1,0,1.54-1.6A1.48,1.48,0,0,0,337,738Zm1.59-1.18c.52,0,.78.26.78.66a.55.55,0,0,1-.41.55v0c.15,0,.23.13.33.38l.23.68H339l-.19-.57a.38.38,0,0,0-.42-.32h-.29v.89h-.44v-2.29Zm-.44,1h.33c.32,0,.45-.14.45-.35s-.13-.32-.43-.32h-.35Z" transform="translate(-125.66 -628.28)"/><path class="cls-3" d="M355.13,729.36l-4.36,10.43-4.36-10.43Zm16.19,6.08a3.11,3.11,0,0,0,1.3-2.71c0-2-1.29-3.37-3.82-3.37h-3.94v10.43Zm-15,4.35,7-4.69v-5.74h-7Z" transform="translate(-125.66 -628.28)"/><path class="cls-3" d="M414.58,736.7c-.42,0-.63-1-.63-1.81v-2.13a.63.63,0,0,0-.58-.67h-.61v4.61h-2.7V725h3.78a2.46,2.46,0,0,1,2.59,2.45v2a1.77,1.77,0,0,1-1.08,1.54,1.72,1.72,0,0,1,1.13,1.56v2.13a5.9,5.9,0,0,0,.34,1.89v.06Zm-.7-9c0-.4-.16-.56-.46-.56h-.66v3h.66c.3,0,.46-.16.46-.56Zm4.06,9V725h5.71v2.26h-3v2.41h2v2h-2v2.59h3v2.38Zm7.23,0V725h5.7v2.26h-3v2.41h2v2h-2v2.59h3v2.38Zm11.5,0v-4.45H435.1v4.45h-2.7V725h2.7v4.83h1.57V725h2.68V736.7Zm7.58.26a3.12,3.12,0,0,1-3.38-3.05v-6.09a3.39,3.39,0,0,1,6.74,0v6.09A3.11,3.11,0,0,1,444.25,737Zm.61-9.29a.57.57,0,0,0-.61-.58.58.58,0,0,0-.63.58v6.4a.58.58,0,0,0,.63.58.57.57,0,0,0,.61-.58Zm7.57,9.29a3.08,3.08,0,0,1-3.3-2.89v-9h2.71v9a.56.56,0,0,0,.59.58.58.58,0,0,0,.63-.58v-9h2.59v9A3,3,0,0,1,452.43,737Zm7.71,0c-2.05,0-3.29-1.12-3.29-3v-.84h2.34v.84a.8.8,0,0,0,.83.88c.52,0,.77-.32.77-.88,0-.82-.7-1.43-1.58-2.24-1-.87-2.29-2-2.29-3.62a3.12,3.12,0,0,1,3.31-3.27,2.9,2.9,0,0,1,3,3v.75h-2.35v-.84a.67.67,0,0,0-.66-.75.71.71,0,0,0-.72.77c0,.92.7,1.4,1.59,2.24,1.09,1,2.28,2.06,2.28,3.71A3.12,3.12,0,0,1,460.14,737Zm4.4-.26V725h5.7v2.26h-3v2.41h2v2h-2v2.59h3v2.38Zm-61.92-15.29v2.19h3.14v13.13h2.55V723.6H470.2v-2.19Zm67.62,16.76H402.62v2.15h67.62Zm-47.71,3.91v.58h.69v.27h-.69v.85h-.33v-2h1.24v.28Zm2.13,1.7-.16-.51h-.67l-.16.51h-.33l.66-2h.33l.67,2Zm-.5-1.57-.25.8h.5Zm1.93,1.57h-.81v-2h.79c.42,0,.59.19.59.49v.06a.37.37,0,0,1-.33.41.38.38,0,0,1,.35.41v.11C426.68,743.58,426.51,743.78,426.09,743.78Zm.25-1.47a.23.23,0,0,0-.26-.24h-.47v.59h.44c.19,0,.29-.1.29-.26Zm0,.86c0-.17-.09-.26-.28-.26h-.46v.59h.49c.19,0,.25-.1.25-.23Zm2,.62c-.22,0-.3-.08-.3-.3v-.29c0-.17-.08-.27-.3-.27h-.43v.85H427v-2h.77c.44,0,.62.2.62.5v.1a.37.37,0,0,1-.36.41.36.36,0,0,1,.36.39v.27a.13.13,0,0,0,.1.14v.18Zm-.31-1.48c0-.13-.06-.24-.27-.24h-.45v.62h.44c.19,0,.28-.09.28-.26Zm.74,1.47v-2h.33v2Zm1.82-1.3v-.11a.33.33,0,0,0-.38-.34.41.41,0,0,0-.45.44v.64a.4.4,0,0,0,.45.43c.25,0,.37-.13.37-.34v-.11H431v.13a.63.63,0,0,1-.71.61.71.71,0,0,1-.77-.74v-.6a.72.72,0,0,1,.78-.75.63.63,0,0,1,.7.61v.13Zm1.78,1.3-.16-.51h-.67l-.16.51h-.33l.66-2h.33l.67,2Zm-.5-1.57-.25.8h.5Zm1.58-.12v1.69h-.33v-1.69h-.57v-.29h1.48v.29Zm.86,1.69v-2h.33v2Zm1.47.05a.71.71,0,0,1-.77-.74v-.61a.77.77,0,0,1,1.54,0v.61A.71.71,0,0,1,435.82,743.83Zm.44-1.36a.44.44,0,0,0-.88,0v.63a.44.44,0,0,0,.88,0Zm1.94,1.31-.75-1.08-.18-.28v1.36H437v-2h.27l.73,1.09.18.28V741.8h.31v2Zm2.83.05a.76.76,0,0,1-.44-.19.85.85,0,0,1-.55.19.54.54,0,0,1-.59-.52.71.71,0,0,1,.45-.61,1.17,1.17,0,0,1-.1-.4.52.52,0,0,1,.54-.56.44.44,0,0,1,.48.47c0,.26-.22.46-.54.59a2.67,2.67,0,0,0,.32.48,1.24,1.24,0,0,0,.28-.55l.25,0a1.42,1.42,0,0,1-.33.68.41.41,0,0,0,.22.11.1.1,0,0,0,.11-.11v-.14h.24v.15C441.37,743.71,441.25,743.83,441,743.83Zm-1-.9a.39.39,0,0,0-.24.35c0,.18.12.28.35.28a.53.53,0,0,0,.28-.1A2.59,2.59,0,0,1,440,742.93Zm.33-.93a.26.26,0,0,0-.24.29.83.83,0,0,0,.08.31c.26-.13.35-.27.35-.39A.19.19,0,0,0,440.34,742Zm2.59,1.83c-.47,0-.74-.24-.74-.58v-.1h.32v0c0,.26.2.36.44.36s.35-.13.35-.3c0-.44-1.09-.26-1.09-.92a.62.62,0,0,1,.7-.59c.45,0,.73.26.73.58v.09h-.32v0c0-.19-.15-.34-.41-.34s-.37.12-.37.28c0,.42,1.09.25,1.09.91A.62.62,0,0,1,442.93,743.83Zm2.15-1.35v-.11a.33.33,0,0,0-.38-.34.41.41,0,0,0-.45.44v.64a.4.4,0,0,0,.45.43.32.32,0,0,0,.37-.34v-.11h.33v.13a.63.63,0,0,1-.71.61.71.71,0,0,1-.77-.74v-.6a.72.72,0,0,1,.78-.75.63.63,0,0,1,.7.61v.13Zm.65,1.3v-2H447v.29h-.93v.51h.69v.28h-.69v.6H447v.3Zm2.82,0-.75-1.08-.18-.28v1.36h-.31v-2h.27l.73,1.09.17.28V741.8h.32v2Zm.67,0v-2h.33v2Zm1.86-1.3v-.11a.33.33,0,0,0-.38-.34.42.42,0,0,0-.46.44v.64a.41.41,0,0,0,.46.43.32.32,0,0,0,.37-.34v-.11h.32v.13a.62.62,0,0,1-.7.61.71.71,0,0,1-.78-.74v-.6a.73.73,0,0,1,.79-.75.63.63,0,0,1,.7.61v.13Z" transform="translate(-125.66 -628.28)"/></svg>