<svg id="Layer_1" data-name="Layer 1" xmlns="http://www.w3.org/2000/svg" viewBox="0 0 37.2 41.96"><defs><style>.cls-1{fill:snow;}</style></defs><path class="cls-1" d="M291.18,406.07l4.72,2.73h4.2l4.72-2.73c.77-.45-.84-3.24-1.62-2.79l-3.59,2.07V401c0-.89-3.22-.89-3.22,0v4.38l-3.59-2.07C292,402.83,290.41,405.62,291.18,406.07Z" transform="translate(-279.4 -400.3)"/><polygon class="cls-1" points="23.5 20.02 28.36 17.21 26.75 14.41 21.89 17.22 20.21 16.27 20.21 10.64 16.99 10.64 16.99 16.27 15.31 17.22 10.45 14.41 8.84 17.21 13.71 20.02 13.71 21.94 8.84 24.75 10.45 27.55 15.31 24.74 16.99 25.69 16.99 31.32 20.21 31.32 20.21 25.69 21.89 24.74 26.75 27.55 28.36 24.75 23.5 21.94 23.5 20.02"/><path class="cls-1" d="M309.86,416.85l4.72,2.73c.77.45,2.39-2.35,1.62-2.79l-3.59-2.08,3.79-2.19c.77-.44-.85-3.24-1.62-2.79L311,411.92v-4.15c0-.89-3.22-.89-3.22,0v5.46Z" transform="translate(-279.4 -400.3)"/><path class="cls-1" d="M279.6,412.52l3.79,2.19-3.59,2.08c-.77.44.85,3.24,1.62,2.79l4.72-2.73,2.09-3.62v-5.46c0-.89-3.22-.89-3.22,0v4.15l-3.79-2.19C280.45,409.28,278.83,412.08,279.6,412.52Z" transform="translate(-279.4 -400.3)"/><path class="cls-1" d="M286.14,425.71,281.42,423c-.77-.44-2.39,2.35-1.62,2.8l3.59,2.07L279.6,430c-.77.45.85,3.24,1.62,2.8l3.79-2.19v4.14c0,.89,3.22.89,3.22,0v-5.45Z" transform="translate(-279.4 -400.3)"/><path class="cls-1" d="M316.4,430l-3.79-2.19,3.59-2.07c.77-.45-.85-3.24-1.62-2.8l-4.72,2.73-2.09,3.63v5.45c0,.89,3.22.89,3.22,0v-4.14l3.79,2.19C315.55,433.28,317.17,430.49,316.4,430Z" transform="translate(-279.4 -400.3)"/><path class="cls-1" d="M304.82,436.49l-4.72-2.72h-4.2l-4.72,2.72c-.77.45.84,3.25,1.62,2.8l3.59-2.07v4.37c0,.89,3.22.89,3.22,0v-4.37l3.59,2.07C304,439.74,305.59,436.94,304.82,436.49Z" transform="translate(-279.4 -400.3)"/></svg>